<?xml version="1.0" standalone="no"?>
<!DOCTYPE svg PUBLIC "-//W3C//DTD SVG 20010904//EN"
 "http://www.w3.org/TR/2001/REC-SVG-20010904/DTD/svg10.dtd">
<svg version="1.0" xmlns="http://www.w3.org/2000/svg"
 width="120.000000pt" height="120.000000pt" viewBox="0 0 120.000000 120.000000"
 preserveAspectRatio="xMidYMid meet">
<metadata>
Created by potrace 1.11, written by Peter Selinger 2001-2013
</metadata>
<g transform="translate(0.000000,120.000000) scale(0.100000,-0.100000)"
fill="#000000" stroke="none">
<path d="M565 1159 c-17 -5 -41 -18 -53 -29 -32 -30 -60 -38 -101 -27 -29 8
-45 6 -76 -8 -36 -17 -74 -49 -76 -64 -3 -30 -11 -57 -17 -63 -4 -4 -29 -15
-56 -25 -72 -27 -92 -58 -89 -145 2 -64 0 -73 -27 -107 -26 -33 -34 -66 -31
-123 1 -10 17 -36 37 -58 30 -33 35 -45 30 -68 -13 -51 -13 -86 0 -112 20 -39
53 -70 74 -70 49 0 64 -12 79 -62 13 -43 59 -97 83 -99 7 0 22 -2 33 -4 11 -2
37 0 57 4 29 7 41 5 55 -8 41 -39 75 -54 115 -53 38 2 98 28 98 44 0 20 41 28
84 17 40 -10 50 -9 91 12 55 28 71 52 74 117 1 11 66 42 66 31 0 -2 15 7 33
19 48 34 61 67 55 138 -4 58 -2 64 27 95 25 28 30 42 30 84 0 50 -14 82 -53
120 -15 14 -17 26 -12 54 4 20 9 45 11 56 5 28 -36 97 -66 111 -14 7 -38 16
-55 21 -22 6 -33 18 -45 50 -29 77 -83 111 -161 98 -34 -6 -46 -3 -81 21 -22
16 -46 29 -53 30 -7 1 -21 4 -31 7 -11 3 -33 1 -49 -4z"/>
</g>
</svg>
